<svg xmlns="http://www.w3.org/2000/svg" width="400" height="432.7272727272727" viewBox="0, 0, 400,432.7272727272727">
  <g>
     <path d="M117.455 79.683 C 106.226 80.982,96.000 87.370,96.000 93.084 C 96.000 110.577,117.343 130.105,150.348 142.809 C 169.816 150.303,190.749 156.277,212.146 160.446 L 216.474 161.290 212.647 166.372 C 206.248 174.872,200.177 181.596,189.649 191.847 C 163.641 217.171,144.210 240.278,129.739 263.091 C 122.450 274.582,116.161 285.913,114.899 289.828 C 96.956 345.496,113.992 386.459,163.489 406.657 C 200.901 421.924,251.997 415.174,295.123 389.270 C 332.104 367.057,366.213 329.099,379.754 295.091 C 383.568 285.513,385.374 277.671,382.141 284.727 C 365.996 319.969,349.570 340.404,321.455 360.226 C 291.246 381.524,258.427 389.690,223.818 384.520 C 198.921 380.800,183.864 366.197,179.800 341.829 C 176.784 323.738,186.478 282.415,199.339 258.545 C 201.687 254.186,207.199 244.498,209.579 240.545 C 224.787 215.289,249.312 198.971,282.279 192.174 C 312.115 186.022,321.014 180.018,320.267 166.545 C 319.918 160.260,319.166 158.941,311.916 151.912 C 300.613 140.954,286.673 133.955,268.182 129.955 L 263.455 128.933 245.503 128.811 L 227.551 128.689 224.048 126.040 C 198.654 106.838,170.019 89.745,152.545 83.358 C 143.940 80.212,127.635 78.505,117.455 79.683 M151.091 107.458 C 159.154 109.285,176.123 115.382,182.165 118.624 C 197.967 127.104,209.753 136.720,215.428 145.766 L 216.422 147.351 214.120 147.102 C 204.578 146.070,188.891 141.123,170.000 133.187 C 150.896 125.162,138.182 115.648,138.182 109.378 C 138.182 106.374,143.085 105.644,151.091 107.458 " stroke="none" fill="#04C8C8"></path>
     <path d="M188.182 19.284 C 158.552 22.463,137.880 29.271,113.599 43.846 C 52.794 80.346,16.518 153.178,21.059 229.638 C 21.546 237.830,22.663 244.070,26.005 257.273 C 38.405 306.252,60.069 343.121,90.282 366.663 C 94.153 369.680,103.633 376.124,103.862 375.895 C 103.941 375.817,103.041 373.804,101.863 371.422 C 92.224 351.926,89.866 330.128,94.746 305.636 C 96.018 299.251,98.066 291.779,99.920 286.753 L 100.983 283.869 99.011 279.524 C 75.553 227.858,77.810 181.082,105.731 140.194 L 109.199 135.115 108.183 134.376 C 78.020 112.431,71.617 86.658,93.091 73.618 C 114.233 60.780,139.481 61.326,167.168 75.220 L 170.733 77.009 174.185 75.385 C 219.730 53.952,267.188 53.605,310.000 74.392 C 344.390 91.089,369.827 117.930,382.860 151.273 C 385.440 157.873,384.621 154.080,381.580 145.344 C 359.287 81.296,300.742 31.152,235.818 20.498 C 223.393 18.459,201.156 17.892,188.182 19.284 " stroke="none" fill="#04C8C8" fill-rule="evenodd"></path>
  </g>
</svg>